HIERARCHY
ROOT Hips
{
	OFFSET 0.000000 35.082581 0.000000
	CHANNELS 6 Xposition Yposition Zposition Xrotation Yrotation Zrotation 
	JOINT Spine
	{
		OFFSET 0.000000 6.876099 0.125700
		CHANNELS 3 Xrotation Yrotation Zrotation
		JOINT Spine1
		{
			OFFSET 0.000000 5.730043 0.104720
			CHANNELS 3 Xrotation Yrotation Zrotation
			JOINT Spine1_split
			{
				OFFSET 0.000000 5.730043 0.104720
				CHANNELS 3 Xrotation Yrotation Zrotation
				JOINT Spine2
				{
					OFFSET 0.000000 5.730043 0.104720
					CHANNELS 3 Xrotation Yrotation Zrotation
					JOINT Neck
					{
						OFFSET 0.000000 10.314075 0.188496
						CHANNELS 3 Xrotation Yrotation Zrotation
						JOINT Head
						{
							OFFSET 0.000000 7.643700 -2.377400
							CHANNELS 3 Xrotation Yrotation Zrotation
							JOINT HeadTop_End
							{
								OFFSET 0.000000 43.788605 -13.619600
								CHANNELS 3 Xrotation Yrotation Zrotation
								End Site
								{
									OFFSET 0.000000 0.000000 0.000000
								}
							}
						}
					}
					JOINT LeftShoulder
					{
						OFFSET 2.196100 4.412489 0.087492
						CHANNELS 3 Xrotation Yrotation Zrotation
						JOINT LeftShoulder_split
						{
							OFFSET 2.196100 4.412489 0.087492
							CHANNELS 3 Xrotation Yrotation Zrotation
							JOINT LeftArm
							{
								OFFSET 8.771219 -2.981674 -0.026999
								CHANNELS 3 Xrotation Yrotation Zrotation
								JOINT LeftForeArm
								{
									OFFSET 8.512804 0.000000 -0.000000
									CHANNELS 3 Xrotation Yrotation Zrotation
									JOINT LeftHand
									{
										OFFSET 18.484802 0.000000 -0.000000
										CHANNELS 3 Xrotation Yrotation Zrotation
										JOINT LeftHandThumb1
										{
											OFFSET 2.499420 -1.158070 2.653252
											CHANNELS 3 Xrotation Yrotation Zrotation
											JOINT LeftHandThumb2
											{
												OFFSET 2.370079 -1.368366 1.368366
												CHANNELS 3 Xrotation Yrotation Zrotation
												JOINT LeftHandThumb3
												{
													OFFSET 2.676727 -1.545410 1.545409
													CHANNELS 3 Xrotation Yrotation Zrotation
													JOINT LeftHandThumb4
													{
														OFFSET 1.692226 -0.977005 0.977007
														CHANNELS 3 Xrotation Yrotation Zrotation
														End Site
														{
															OFFSET 0.000000 0.000000 0.000000
														}
													}
												}
											}
										}
										JOINT LeftHandIndex1
										{
											OFFSET 7.924831 -0.457527 2.345128
											CHANNELS 3 Xrotation Yrotation Zrotation
											JOINT LeftHandIndex2
											{
												OFFSET 3.643303 0.000000 0.000000
												CHANNELS 3 Xrotation Yrotation Zrotation
												JOINT LeftHandIndex3
												{
													OFFSET 3.810799 0.000000 0.000000
													CHANNELS 3 Xrotation Yrotation Zrotation
													JOINT LeftHandIndex4
													{
														OFFSET 2.403702 0.000000 0.000000
														CHANNELS 3 Xrotation Yrotation Zrotation
														End Site
														{
															OFFSET 0.000000 0.000000 0.000000
														}
													}
												}
											}
										}
										JOINT LeftHandMiddle1
										{
											OFFSET 8.563995 0.000000 -0.000000
											CHANNELS 3 Xrotation Yrotation Zrotation
											JOINT LeftHandMiddle2
											{
												OFFSET 3.861618 0.000000 0.000000
												CHANNELS 3 Xrotation Yrotation Zrotation
												JOINT LeftHandMiddle3
												{
													OFFSET 3.701603 0.000000 0.000000
													CHANNELS 3 Xrotation Yrotation Zrotation
													JOINT LeftHandMiddle4
													{
														OFFSET 2.322544 0.000000 0.000000
														CHANNELS 3 Xrotation Yrotation Zrotation
														End Site
														{
															OFFSET 0.000000 0.000000 0.000000
														}
													}
												}
											}
										}
										JOINT LeftHandRing1
										{
											OFFSET 8.426460 -0.424637 -3.286992
											CHANNELS 3 Xrotation Yrotation Zrotation
											JOINT LeftHandRing2
											{
												OFFSET 3.126408 0.000000 0.000000
												CHANNELS 3 Xrotation Yrotation Zrotation
												JOINT LeftHandRing3
												{
													OFFSET 3.085026 0.000000 0.000000
													CHANNELS 3 Xrotation Yrotation Zrotation
													JOINT LeftHandRing4
													{
														OFFSET 1.644005 0.000000 0.000000
														CHANNELS 3 Xrotation Yrotation Zrotation
														End Site
														{
															OFFSET 0.000000 0.000000 0.000000
														}
													}
												}
											}
										}
									}
								}
							}
						}
					}
					JOINT RightShoulder
					{
						OFFSET -2.196100 4.412496 0.070690
						CHANNELS 3 Xrotation Yrotation Zrotation
						JOINT RightShoulder_split
						{
							OFFSET -2.196100 4.412496 0.070690
							CHANNELS 3 Xrotation Yrotation Zrotation
							JOINT RightArm
							{
								OFFSET -8.771282 -2.981682 -0.094208
								CHANNELS 3 Xrotation Yrotation Zrotation
								JOINT RightForeArm
								{
									OFFSET -8.494598 0.000000 0.000000
									CHANNELS 3 Xrotation Yrotation Zrotation
									JOINT RightHand
									{
										OFFSET -18.483803 0.000000 0.000001
										CHANNELS 3 Xrotation Yrotation Zrotation
										JOINT RightHandThumb1
										{
											OFFSET -2.527351 -1.008072 2.575253
											CHANNELS 3 Xrotation Yrotation Zrotation
											JOINT RightHandThumb2
											{
												OFFSET -2.321518 -1.340328 1.340329
												CHANNELS 3 Xrotation Yrotation Zrotation
												JOINT RightHandThumb3
												{
													OFFSET -2.657753 -1.534454 1.534455
													CHANNELS 3 Xrotation Yrotation Zrotation
													JOINT RightHandThumb4
													{
														OFFSET -1.807510 -1.043568 1.043567
														CHANNELS 3 Xrotation Yrotation Zrotation
														End Site
														{
															OFFSET 0.000000 0.000000 0.000000
														}
													}
												}
											}
										}
										JOINT RightHandIndex1
										{
											OFFSET -8.811420 0.015533 2.887987
											CHANNELS 3 Xrotation Yrotation Zrotation
											JOINT RightHandIndex2
											{
												OFFSET -3.537502 0.000000 0.000000
												CHANNELS 3 Xrotation Yrotation Zrotation
												JOINT RightHandIndex3
												{
													OFFSET -3.356201 0.000000 0.000000
													CHANNELS 3 Xrotation Yrotation Zrotation
													JOINT RightHandIndex4
													{
														OFFSET -1.933098 0.000000 0.000000
														CHANNELS 3 Xrotation Yrotation Zrotation
														End Site
														{
															OFFSET 0.000000 0.000000 0.000000
														}
													}
												}
											}
										}
										JOINT RightHandMiddle1
										{
											OFFSET -8.178135 0.000000 0.000000
											CHANNELS 3 Xrotation Yrotation Zrotation
											JOINT RightHandMiddle2
											{
												OFFSET -3.901302 0.000000 0.000000
												CHANNELS 3 Xrotation Yrotation Zrotation
												JOINT RightHandMiddle3
												{
													OFFSET -3.909599 0.000000 0.000000
													CHANNELS 3 Xrotation Yrotation Zrotation
													JOINT RightHandMiddle4
													{
														OFFSET -2.376003 0.000000 0.000000
														CHANNELS 3 Xrotation Yrotation Zrotation
														End Site
														{
															OFFSET 0.000000 0.000000 0.000000
														}
													}
												}
											}
										}
										JOINT RightHandRing1
										{
											OFFSET -7.559013 0.014137 -2.865403
											CHANNELS 3 Xrotation Yrotation Zrotation
											JOINT RightHandRing2
											{
												OFFSET -3.449306 0.000000 0.000000
												CHANNELS 3 Xrotation Yrotation Zrotation
												JOINT RightHandRing3
												{
													OFFSET -3.362106 0.000000 0.000000
													CHANNELS 3 Xrotation Yrotation Zrotation
													JOINT RightHandRing4
													{
														OFFSET -2.076401 0.000000 0.000000
														CHANNELS 3 Xrotation Yrotation Zrotation
														End Site
														{
															OFFSET 0.000000 0.000000 0.000000
														}
													}
												}
											}
										}
									}
								}
							}
						}
					}
				}
			}
		}
	}
	JOINT LeftUpLeg
	{
		OFFSET 10.205400 -3.823500 0.155100
		CHANNELS 3 Xrotation Yrotation Zrotation
		JOINT LeftLeg
		{
			OFFSET 0.708757 -12.982077 0.567790
			CHANNELS 3 Xrotation Yrotation Zrotation
			JOINT LeftFoot
			{
				OFFSET -0.708756 -10.717838 -2.184338
				CHANNELS 3 Xrotation Yrotation Zrotation
				JOINT LeftToeBase
				{
					OFFSET 0.108149 -7.191104 7.560241
					CHANNELS 3 Xrotation Yrotation Zrotation
					JOINT LeftToe_End
					{
						OFFSET 0.070230 0.081724 4.490308
						CHANNELS 3 Xrotation Yrotation Zrotation
						End Site
						{
							OFFSET 0.000000 0.000000 0.000000
						}
					}
				}
			}
		}
	}
	JOINT RightUpLeg
	{
		OFFSET -10.205400 -3.823500 0.005500
		CHANNELS 3 Xrotation Yrotation Zrotation
		JOINT RightLeg
		{
			OFFSET -0.708756 -12.982134 0.610632
			CHANNELS 3 Xrotation Yrotation Zrotation
			JOINT RightFoot
			{
				OFFSET 0.708754 -10.717769 -1.945823
				CHANNELS 3 Xrotation Yrotation Zrotation
				JOINT RightToeBase
				{
					OFFSET -0.108140 -7.191069 7.372968
					CHANNELS 3 Xrotation Yrotation Zrotation
					JOINT RightToe_End
					{
						OFFSET -0.070227 0.081735 4.479403
						CHANNELS 3 Xrotation Yrotation Zrotation
						End Site
						{
							OFFSET 0.000000 0.000000 0.000000
						}
					}
				}
			}
		}
	}
}
MOTION
Frames: 6
Frame Time: 0.016667
-0.301770 26.564655 0.292918 11.655838 -49.360722 11.305343 10.974599 2.699128 -2.070010 6.100719 5.566529 -4.284685 0.000000 0.000000 0.000000 -5.786914 6.328155 -3.046188 2.318650 9.363420 -0.265731 -4.146880 23.161858 -3.522968 -0.000001 -0.000000 -0.000000 -1.882861 -16.244778 -2.883327 0.000000 0.000000 0.000000 -10.641505 2.224961 -45.488360 -22.862395 -25.786257 -15.871708 2.491072 -2.511888 6.860478 18.457919 -9.513793 13.216585 -1.150196 11.255277 -8.400870 5.706526 8.483121 -0.820711 -0.000001 0.000001 -0.000002 -1.232815 -5.771920 -0.192319 0.133973 -0.197644 -4.602071 0.055742 -0.448195 -7.568217 0.000000 -0.000001 0.000000 1.884729 4.663385 -4.597379 0.476668 -1.009838 -12.986432 0.628515 -1.346591 -16.553998 -0.000002 0.000001 -0.000002 3.024615 7.938948 -14.103455 -0.708056 -0.566186 -18.895732 -0.726388 -0.705014 -22.058437 0.000002 0.000003 0.000001 -5.080950 24.428086 1.493080 0.000000 0.000000 0.000000 6.647383 -34.818556 57.612912 -21.031974 44.833826 19.961679 -0.087217 35.608488 7.474267 55.149556 18.649528 -29.698281 -0.442565 -14.180542 7.313127 21.667030 -29.244534 9.142410 0.000002 -0.000000 0.000001 5.673408 7.585055 36.844161 1.050467 3.824457 68.900230 0.499566 3.026057 62.196454 0.000000 -0.000001 0.000001 -0.125692 1.886085 45.000756 -1.168980 3.204675 68.417650 -0.936396 1.813647 41.107548 0.000001 0.000000 -0.000001 -5.312013 1.216629 58.508828 -0.745182 1.667569 48.011271 -0.816472 1.840655 53.666545 0.000001 -0.000001 0.000001 -69.352723 16.208358 51.972204 53.929572 -25.144855 2.808956 2.213488 2.700430 -19.144238 -0.941409 -6.111089 0.982430 0.000000 0.000002 -0.000000 -27.355061 4.523094 -38.849085 61.088058 11.597467 -5.601611 -37.637317 -11.607272 32.641884 0.528340 2.970040 1.471439 0.000000 0.000000 -0.000000 
-0.310978 26.564594 0.290844 11.640118 -49.505751 11.309303 10.972412 2.756850 -2.085113 6.133753 5.604294 -4.247334 0.000000 0.000000 0.000000 -5.764548 6.336159 -3.016235 2.313012 9.402304 -0.496346 -4.187045 23.085213 -3.410674 -0.000000 0.000000 0.000001 -1.903000 -16.283504 -3.000835 0.000000 0.000000 0.000000 -10.665531 2.222347 -45.395131 -22.827809 -25.744986 -15.838633 2.461415 -2.435294 6.885880 18.464889 -9.494860 13.214780 -1.134546 11.275820 -8.403351 5.716610 8.500850 -0.821537 -0.000001 -0.000002 -0.000004 -1.233052 -5.735407 -0.262384 0.133833 -0.200950 -4.674383 0.054945 -0.451119 -7.636853 -0.000001 0.000002 -0.000002 1.884283 4.658510 -4.668110 0.474413 -1.015912 -13.148154 0.626715 -1.350722 -16.622976 0.000001 0.000001 -0.000001 3.023515 7.934865 -14.172990 -0.709379 -0.572792 -19.056720 -0.727123 -0.707915 -22.125717 -0.000000 -0.000002 -0.000001 -5.036438 24.265326 1.406464 0.000000 0.000000 0.000000 6.704567 -34.680337 57.476103 -20.413760 44.915450 19.709402 0.211628 35.320240 6.345755 55.149563 18.649546 -29.698291 -0.442548 -14.180555 7.313212 21.648327 -29.254674 9.095113 -0.000003 -0.000002 0.000005 5.673401 7.585022 36.844117 1.050450 3.824490 68.900230 0.499548 3.026037 62.196468 -0.000000 0.000000 -0.000000 -0.125535 1.886269 45.000783 -1.169003 3.204653 68.417650 -0.934024 1.814867 41.107490 -0.000001 0.000001 -0.000001 -5.312119 1.216712 58.508746 -0.743520 1.669642 48.011271 -0.816460 1.840569 53.666521 -0.000001 -0.000001 0.000002 -69.193593 16.227181 52.063581 53.986693 -25.010312 2.868273 2.093168 2.741326 -19.265247 -1.011651 -6.351660 1.051282 0.000000 0.000000 -0.000000 -27.419938 4.660752 -38.788330 61.165205 11.593038 -5.604006 -37.626030 -11.566650 32.623944 0.612541 2.963458 1.439468 -0.000000 0.000002 0.000000 
-0.316861 26.559013 0.287680 11.495012 -49.645428 11.234730 10.992299 2.797317 -2.107250 6.210110 5.609805 -4.231204 0.000000 0.000000 0.000000 -5.697419 6.318252 -3.012863 2.193452 9.464201 -0.640307 -4.095890 23.049771 -3.380867 -0.000000 0.000000 -0.000000 -1.908079 -16.258767 -3.020654 0.000000 0.000000 0.000000 -10.687450 2.247382 -45.360044 -22.769663 -25.731454 -15.803236 2.450930 -2.428304 6.875480 18.484908 -9.440137 13.209261 -1.089343 11.335340 -8.410330 5.745644 8.552539 -0.824125 -0.000001 -0.000000 -0.000002 -1.233504 -5.629204 -0.465552 0.133383 -0.210492 -4.883985 0.053104 -0.460264 -7.835759 0.000002 0.000003 -0.000002 1.883504 4.644742 -4.873350 0.467261 -1.037516 -13.616832 0.623328 -1.357834 -16.823287 0.000001 -0.000000 0.000002 3.021421 7.923323 -14.374510 -0.715598 -0.596527 -19.523327 -0.729489 -0.715978 -22.320718 -0.000004 0.000005 0.000004 -5.072069 24.344579 1.612708 0.000000 0.000000 0.000000 6.672750 -34.749626 56.881716 -18.584989 45.084013 18.881609 0.891887 34.215935 3.308618 55.149519 18.649565 -29.698267 -0.442571 -14.180574 7.313323 21.629566 -29.264772 9.047771 0.000002 0.000003 0.000003 5.673426 7.585016 36.844117 1.050414 3.824496 68.900291 0.499610 3.026006 62.196440 0.000000 -0.000001 0.000001 -0.125398 1.886432 45.000770 -1.169027 3.204649 68.417718 -0.931651 1.816034 41.107466 0.000001 -0.000000 -0.000000 -5.312259 1.216733 58.508807 -0.741734 1.671697 48.011145 -0.816495 1.840580 53.666552 0.000004 0.000002 0.000000 -68.976407 16.258355 52.115716 54.005834 -25.046893 2.929656 1.983009 2.773810 -19.387367 -1.020469 -6.221606 1.062959 0.000000 -0.000001 -0.000000 -27.398734 4.790592 -38.786366 61.243752 11.640217 -5.599154 -37.567130 -11.521106 32.607955 0.552211 2.999116 1.361445 0.000000 0.000003 0.000000 
-0.324134 26.558071 0.276329 11.415728 -49.832722 11.223568 11.001112 2.834197 -2.128035 6.262218 5.612153 -4.216224 0.000000 0.000000 0.000000 -5.653938 6.298713 -3.010385 2.178525 9.585919 -0.934684 -4.140473 23.001132 -3.228226 0.000001 -0.000000 -0.000000 -1.889326 -15.962413 -3.044869 0.000000 0.000000 0.000000 -10.743613 2.048037 -45.378957 -22.673248 -25.677850 -15.719301 2.461769 -2.430188 6.807742 18.516860 -9.352243 13.200237 -1.014993 11.429187 -8.416370 5.790251 8.636287 -0.824179 -0.000003 0.000001 0.000001 -1.230650 -5.459047 -0.790875 0.132220 -0.225658 -5.219955 0.050233 -0.475076 -8.154654 0.000000 -0.000001 0.000000 1.882241 4.622881 -5.202245 0.455169 -1.074101 -14.367969 0.618009 -1.369283 -17.144248 -0.000002 0.000001 0.000000 3.018053 7.905101 -14.697572 -0.726070 -0.634166 -20.270960 -0.733268 -0.728753 -22.633293 -0.000000 0.000003 0.000001 -5.079882 24.138025 1.821995 0.000000 0.000000 0.000000 6.573144 -34.379518 55.764547 -14.830241 45.143299 17.007533 2.052949 32.012349 -1.966961 55.149526 18.649546 -29.698298 -0.442583 -14.180566 7.313394 21.610804 -29.274908 9.000463 -0.000003 -0.000003 0.000001 5.673400 7.585063 36.844124 1.050413 3.824485 68.900285 0.499590 3.026004 62.196454 0.000002 0.000001 -0.000003 -0.125235 1.886620 45.000773 -1.168982 3.204675 68.417698 -0.929309 1.817326 41.107439 -0.000001 -0.000001 0.000000 -5.312365 1.216862 58.508766 -0.740107 1.673723 48.011141 -0.816463 1.840519 53.666504 0.000008 -0.000000 -0.000002 -68.741995 16.327827 52.188229 54.008799 -24.940518 3.020391 1.866812 2.793268 -19.553641 -1.086225 -6.317590 1.129672 -0.000000 -0.000003 0.000000 -27.479857 5.001427 -38.740720 61.384481 11.673177 -5.596461 -37.532040 -11.468770 32.566765 0.666928 2.972447 1.343093 0.000000 0.000000 -0.000000 
-0.329437 26.553974 0.265337 11.175352 -49.934301 11.167009 11.018525 2.861957 -2.157741 6.331284 5.599950 -4.228954 0.000000 0.000000 0.000000 -5.592461 6.271875 -3.037230 2.123661 9.689423 -1.179597 -4.049716 22.935632 -3.100421 -0.000000 0.000000 0.000000 -1.896899 -15.889952 -3.087193 0.000000 0.000000 0.000000 -10.739187 2.060728 -45.364255 -22.581802 -25.698817 -15.654596 2.485490 -2.423251 6.647013 18.557581 -9.232473 13.192369 -0.915186 11.555374 -8.424783 5.850203 8.748683 -0.824563 -0.000004 0.000001 -0.000006 -1.223541 -5.230814 -1.228088 0.130554 -0.246036 -5.671130 0.046339 -0.495022 -8.582878 -0.000004 0.000001 -0.000001 1.880548 4.593756 -5.644045 0.438368 -1.123012 -15.377030 0.609881 -1.387889 -17.575342 -0.000000 -0.000002 0.000001 3.018441 7.879860 -15.132139 -0.741094 -0.684180 -21.275435 -0.740465 -0.750322 -23.052986 0.000005 -0.000001 -0.000001 -5.134564 24.848312 2.120654 0.000000 0.000000 0.000000 6.274993 -34.716161 53.957668 -9.547857 44.108429 14.325000 3.182593 29.069411 -8.558531 55.149543 18.649557 -29.698287 -0.442573 -14.180590 7.313466 21.592011 -29.284979 8.953101 0.000002 0.000000 0.000005 5.673427 7.585028 36.844144 1.050422 3.824510 68.900237 0.499594 3.026030 62.196406 0.000003 -0.000001 0.000001 -0.125002 1.886759 45.000742 -1.169005 3.204685 68.417650 -0.926901 1.818522 41.107394 0.000000 0.000000 -0.000000 -5.312508 1.216876 58.508780 -0.738333 1.675768 48.011076 -0.816463 1.840550 53.666552 0.000000 0.000001 -0.000001 -68.387802 16.482747 52.063824 53.905636 -24.868382 3.168061 1.813299 2.788712 -19.747019 -1.088682 -6.280695 1.133039 -0.000000 -0.000000 0.000000 -27.450508 5.134204 -38.883772 61.553549 11.826527 -5.576298 -37.517423 -11.414964 32.494304 0.625060 2.940862 1.337011 0.000000 -0.000002 0.000000 
-0.336168 26.557564 0.240661 11.039940 -50.300464 11.081633 11.027362 2.921934 -2.202693 6.382745 5.650905 -4.268035 0.000000 0.000000 0.000000 -5.549330 6.313468 -3.075853 2.143834 9.846661 -1.430174 -4.005529 22.908207 -2.904121 0.000002 -0.000000 0.000000 -1.897091 -15.736764 -3.122411 0.000000 0.000000 0.000000 -10.731355 2.116088 -45.273417 -22.485242 -25.736443 -15.596580 2.562739 -2.342654 6.548840 18.607254 -9.084485 13.183293 -0.792420 11.710786 -8.435708 5.924092 8.887058 -0.825358 -0.000001 -0.000000 0.000001 -1.209809 -4.950415 -1.766358 0.128180 -0.271054 -6.226753 0.041487 -0.519328 -9.110247 0.000000 -0.000003 0.000005 1.878273 4.558330 -6.187985 0.416842 -1.182812 -16.619379 0.599054 -1.413132 -18.105991 0.000000 -0.000001 0.000001 3.018828 7.849388 -15.667226 -0.760742 -0.744788 -22.512198 -0.749550 -0.776588 -23.569740 0.000001 -0.000001 0.000000 -5.016321 24.084200 2.123949 0.000000 0.000000 0.000000 5.607371 -33.057521 51.658742 -2.901365 41.376593 11.041929 4.053423 25.955511 -15.430538 55.149522 18.649538 -29.698270 -0.442606 -14.180612 7.313569 21.573287 -29.295054 8.905787 0.000005 -0.000002 0.000003 5.673388 7.585006 36.844141 1.050431 3.824487 68.900257 0.499590 3.026024 62.196468 0.000003 0.000001 0.000001 -0.124874 1.886927 45.000746 -1.169010 3.204621 68.417629 -0.924500 1.819753 41.107333 0.000001 -0.000000 -0.000000 -5.312626 1.216892 58.508787 -0.736616 1.677837 48.011005 -0.816476 1.840498 53.666548 -0.000000 0.000002 0.000001 -68.015502 16.544795 52.290699 53.921393 -24.668241 3.324090 1.633025 2.821533 -20.051789 -1.165076 -6.531931 1.206942 -0.000000 -0.000001 0.000000 -27.534815 5.583086 -38.607842 61.731796 11.738057 -5.603201 -37.384774 -11.356185 32.480623 0.635137 2.835056 1.202084 0.000000 0.000001 -0.000000 
